Coordinates
version=1
nRows=13
nColumns=36
inDegrees=yes

Units are S.I. units (second, meters, Newtons, ...)
If the header above contains a line with 'inDegrees', this indicates whether rotational values are in degrees (yes) or radians (no).

endheader
time	pelvis_tilt	pelvis_list	pelvis_rotation	pelvis_tx	pelvis_ty	pelvis_tz	hip_flexion_r	hip_adduction_r	hip_rotation_r	knee_angle_r	knee_angle_r_beta	ankle_angle_r	subtalar_angle_r	mtp_angle_r	hip_flexion_l	hip_adduction_l	hip_rotation_l	knee_angle_l	knee_angle_l_beta	ankle_angle_l	subtalar_angle_l	mtp_angle_l	lumbar_extension	lumbar_bending	lumbar_rotation	arm_flex_r	arm_add_r	arm_rot_r	elbow_flex_r	pro_sup_r	arm_flex_l	arm_add_l	arm_rot_l	elbow_flex_l	pro_sup_l
      3.78333330	      7.22460889	      7.89296259	     -4.46195665	      0.83689810	      0.94214479	      0.08819339	     -6.12547616	     -2.19603677	      4.42089468	      3.96906407	      0.06927324	      6.25063396	      6.49679376	     -7.49999987	     44.23204018	     -4.59086626	     -9.92206297	     15.71871900	      0.27434340	     -5.70476446	     -5.68381507	     -7.49999987	    -15.03155645	     -8.80521264	      7.54700953	     54.21809939	      4.70293974	     63.86586928	    121.52600292	     91.00279010	     72.46951548	     11.98112797	     67.83407016	    121.35714336	     63.26498367
      3.80000000	      6.96647980	      7.95217339	     -4.56356575	      0.83773533	      0.94240197	      0.08839598	     -5.57277858	     -2.23776818	      4.24969042	      4.56902050	      0.07974445	      5.95239779	      6.78117455	     -7.49999987	     44.02986287	     -4.56981383	    -10.16617579	     15.62938866	      0.27278429	     -5.95573055	     -5.12004168	     -7.49999987	    -14.64782491	     -8.69427081	      7.71098333	     54.00796296	      4.81925862	     64.51158777	    121.56108390	     89.20148444	     71.78231693	     11.70629841	     67.90896384	    121.95425356	     63.22020341
      3.81666670	      6.79120936	      7.87780824	     -4.76733642	      0.83833817	      0.94125162	      0.08836558	     -5.22478519	     -2.15021495	      4.37291057	      4.94295416	      0.08627082	      5.86682524	      7.04103793	     -7.49999987	     43.79077881	     -4.71088997	    -10.26082459	     15.40025331	      0.26878513	     -5.96922775	     -4.80650561	     -7.49999987	    -14.34722661	     -8.53040971	      7.88332302	     53.81717184	      4.93459105	     64.89568924	    121.55626025	     88.69713773	     71.38174833	     11.54229445	     67.94333298	    121.90739710	     63.21963788
      3.83333330	      6.72830853	      7.82914527	     -4.79201683	      0.83920878	      0.94162673	      0.08863536	     -4.97836332	     -2.12041335	      4.21947301	      5.37869833	      0.09387600	      5.97902052	      7.16534590	     -7.49999987	     43.58860116	     -4.80099920	    -10.77593495	     15.42622118	      0.26923835	     -5.95532699	     -4.43264335	     -7.49999987	    -14.34186592	     -8.34801531	      7.90361428	     53.77704843	      5.07806272	     65.30561502	    121.51796627	     87.89514607	     70.82043679	     11.32968895	     67.78870363	    122.30388028	     63.17787475
      3.85000000	      6.64643577	      7.85750605	     -4.76234172	      0.84383448	      0.93945085	      0.08603104	     -4.71564741	     -2.27503649	      3.64444137	      5.94501816	      0.10376014	      6.37475202	      7.54049529	     -7.49999987	     43.43463392	     -4.68805631	    -11.14862446	     15.49201111	      0.27038660	     -5.47714018	     -4.25371770	     -7.49999987	    -14.19140717	     -8.17670947	      7.59351645	     53.98430969	      5.29580993	     65.78414528	    121.24345086	     88.31448557	     70.50107518	     10.98391552	     67.58937876	    122.58850095	     63.32728914
      3.86666670	      6.45868981	      8.04394791	     -4.63711833	      0.84408124	      0.93977485	      0.08627088	     -4.68224740	     -2.51751771	      3.73498505	      5.94436759	      0.10374879	      6.69821563	      7.71251765	     -7.49999987	     43.58147651	     -4.39044347	    -11.23186191	     15.88473700	      0.27724096	     -5.21143355	     -4.59328117	     -7.49999987	    -13.78970519	     -8.21529879	      7.51128349	     53.97832123	      5.23582446	     65.73986563	    121.19874147	     87.14801219	     70.36359015	     10.79588514	     67.49846400	    122.75395009	     63.25935103
      3.88333330	      6.32487832	      8.14504199	     -4.86859242	      0.84385549	      0.94156993	      0.08606383	     -4.64534342	     -2.74148875	      3.81834896	      5.87303425	      0.10250378	      6.90022730	      7.98975142	     -7.49999987	     43.39908140	     -4.25457158	    -11.22022464	     15.71874629	      0.27434388	     -5.08097530	     -4.83917306	     -7.49999987	    -13.55022007	     -8.09748803	      7.46286104	     54.06407101	      5.30025684	     66.01337377	    121.00665255	     86.89337772	     70.31522954	     10.56648489	     67.48878227	    122.93917139	     63.27564021
      3.90000000	      6.22211659	      8.24992722	     -4.84751575	      0.84921053	      0.94189434	      0.08343715	     -4.90908110	     -3.00551294	      3.96645703	      5.55198619	      0.09690044	      6.74831942	      8.20723758	     -7.49999987	     43.03505538	     -3.91511948	    -11.16826124	     15.49158196	      0.27037911	     -4.78541424	     -5.00373914	     -7.49999987	    -13.17174051	     -7.90984993	      7.27078169	     53.50834063	      5.18255116	     66.24258525	    120.91264096	     87.08309779	     69.67096536	     10.57730813	     67.47001815	    123.06201273	     63.30694297
      3.91666670	      5.88952513	      8.36516985	     -4.91924607	      0.84441746	      0.94025103	      0.08601349	     -4.60237020	     -3.11670426	      4.29529326	      5.38175196	      0.09392929	      6.69259888	      8.45569998	     -7.49999987	     43.05407718	     -3.74277360	    -11.00167747	     15.37945926	      0.26842220	     -4.61955507	     -5.31748377	     -7.49999987	    -12.81971082	     -7.84036509	      7.30241559	     53.44434047	      5.34053532	     66.34527045	    120.74058070	     87.44610100	     69.33353016	     10.51617338	     67.32876599	    123.47438575	     63.38354840
      3.93333330	      5.79305840	      8.39962464	     -5.22051278	      0.84506083	      0.94036951	      0.08646499	     -4.48897775	     -3.18840079	      4.86503388	      5.16544437	      0.09015401	      6.54314600	      8.54180148	     -7.49999987	     42.87897491	     -3.81513272	    -10.32325629	     15.38029163	      0.26843673	     -4.44392232	     -5.50142350	     -7.49999987	    -12.75310491	     -7.66884833	      7.18387904	     53.51555037	      5.62891294	     66.72031287	    120.43153339	     85.39824293	     69.05027226	     10.18821369	     67.12399223	    123.88438777	     63.29198137
      3.95000000	      5.69712245	      8.36883716	     -5.50251279	      0.85003846	      0.94272672	      0.08374414	     -4.45006564	     -3.36429964	      4.99833266	      5.28851649	      0.09230203	      6.51408025	      9.26426903	     -7.49999987	     42.39823923	     -3.86675630	     -9.56378735	     15.19258908	      0.26516070	     -4.15774875	     -5.97212090	     -7.49999987	    -12.52783462	     -7.35482196	      7.20778460	     53.02161153	      5.62079261	     66.56789463	    120.28145040	     89.34504639	     68.47265343	     10.12399205	     67.15666018	    124.33519136	     63.82631052
      3.96666670	      5.71849377	      8.22457573	     -5.83648468	      0.84596244	      0.94421342	      0.08686193	     -4.41964916	     -3.26478711	      5.47505532	      5.36519412	      0.09364030	      6.54723339	      9.64077399	     -7.49999987	     41.89479676	     -4.23842108	     -9.57409273	     14.98279169	      0.26149905	     -4.18668210	     -6.22188488	     -7.49999987	    -12.64427305	     -7.07234192	      7.63197805	     53.24048352	      5.56806658	     66.54766441	    120.29180997	     89.32634346	     68.29380328	     10.09197850	     67.26109685	    124.61442520	     63.84330835
      3.98333330	      5.85074493	      8.13467598	     -5.83664190	      0.85063665	      0.94191181	      0.08390203	     -4.50852303	     -3.35165035	      5.25645720	      5.76338467	      0.10059004	      6.51125752	      9.61045070	     -7.49999987	     41.63110274	     -4.18310185	     -9.49689472	     15.51658852	      0.27081556	     -3.71355735	     -6.51826910	     -7.49999987	    -12.76907098	     -6.78306131	      7.58202137	     53.32085135	      5.37286860	     66.50020424	    120.40804085	     89.25718658	     68.09561059	     10.18770334	     67.35227797	    124.82260427	     63.86728757
